FrauncesItalic-BlackOpMaxGoofyMax.ufo
<glyph name="ampersand" format="2">
  <advance width="1534"/>
  <unicode hex="0026"/>
  <outline>
    <contour>
      <point x="288" y="268" type="line" smooth="yes"/>
      <point x="17" y="83"/>
      <point x="-81" y="-88"/>
      <point x="-86" y="-228" type="curve" smooth="yes"/>
      <point x="-91" y="-378"/>
      <point x="-9" y="-448"/>
      <point x="103" y="-448" type="curve" smooth="yes"/>
      <point x="202" y="-448"/>
      <point x="281" y="-378"/>
      <point x="284" y="-293" type="curve" smooth="yes"/>
      <point x="287" y="-205"/>
      <point x="215" y="-168"/>
      <point x="218" y="-74" type="curve" smooth="yes"/>
      <point x="221" y="13"/>
      <point x="250" y="108"/>
      <point x="403" y="213" type="curve" smooth="yes"/>
      <point x="1400" y="900" type="line" smooth="yes"/>
      <point x="1650" y="1070"/>
      <point x="1761" y="1192"/>
      <point x="1766" y="1357" type="curve" smooth="yes"/>
      <point x="1771" y="1489"/>
      <point x="1688" y="1565"/>
      <point x="1593" y="1565" type="curve" smooth="yes"/>
      <point x="1468" y="1565"/>
      <point x="1386" y="1482"/>
      <point x="1383" y="1393" type="curve" smooth="yes"/>
      <point x="1380" y="1317"/>
      <point x="1441" y="1272"/>
      <point x="1438" y="1177" type="curve" smooth="yes"/>
      <point x="1436" y="1103"/>
      <point x="1398" y="1042"/>
      <point x="1282" y="960" type="curve" smooth="yes"/>
    </contour>
    <contour>
      <point x="1042" y="265" type="curve" smooth="yes"/>
      <point x="1034" y="176"/>
      <point x="966" y="139"/>
      <point x="868" y="139" type="curve" smooth="yes"/>
      <point x="683" y="139"/>
      <point x="574" y="304"/>
      <point x="630" y="609" type="curve" smooth="yes"/>
      <point x="676" y="853"/>
      <point x="776" y="999"/>
      <point x="848" y="999" type="curve" smooth="yes"/>
      <point x="907" y="999"/>
      <point x="939" y="951"/>
      <point x="926" y="814" type="curve" smooth="yes"/>
      <point x="917" y="711"/>
      <point x="903" y="612"/>
      <point x="885" y="558" type="curve"/>
      <point x="1071" y="683"/>
      <point x="1198" y="753"/>
      <point x="1286" y="753" type="curve" smooth="yes"/>
      <point x="1338" y="753"/>
      <point x="1379" y="816"/>
      <point x="1388" y="891" type="curve" smooth="yes"/>
      <point x="1401" y="1040"/>
      <point x="1193" y="1158"/>
      <point x="962" y="1158" type="curve" smooth="yes"/>
      <point x="546" y="1158"/>
      <point x="234" y="906"/>
      <point x="160" y="567" type="curve" smooth="yes"/>
      <point x="82" y="207"/>
      <point x="282" y="-29"/>
      <point x="748" y="-29" type="curve" smooth="yes"/>
      <point x="1210" y="-29"/>
      <point x="1424" y="184"/>
      <point x="1445" y="388" type="curve" smooth="yes"/>
      <point x="1459" y="548"/>
      <point x="1358" y="626"/>
      <point x="1224" y="626" type="curve" smooth="yes"/>
      <point x="1103" y="626"/>
      <point x="1031" y="534"/>
      <point x="1020" y="442" type="curve" smooth="yes"/>
      <point x="1012" y="369"/>
      <point x="1049" y="332"/>
    </contour>
  </outline>
</glyph>
<glyph name="period" format="2">
  <advance width="630"/>
  <unicode hex="002E"/>
  <outline>
    <contour>
      <point x="267" y="-22" type="curve" smooth="yes"/>
      <point x="438" y="-22"/>
      <point x="553" y="78"/>
      <point x="557" y="198" type="curve" smooth="yes"/>
      <point x="561" y="301"/>
      <point x="504" y="379"/>
      <point x="367" y="379" type="curve" smooth="yes"/>
      <point x="181" y="379"/>
      <point x="67" y="265"/>
      <point x="63" y="146" type="curve" smooth="yes"/>
      <point x="60" y="51"/>
      <point x="129" y="-22"/>
    </contour>
  </outline>
</glyph>
<glyph name="A" format="2">
  <advance width="1331"/>
  <unicode hex="0041"/>
  <anchor x="1033" y="1532" name="center"/>
  <outline>
    <contour>
      <point x="390" y="392" type="curve" smooth="yes"/>
      <point x="660" y="865" type="line" smooth="yes"/>
      <point x="774" y="1052"/>
      <point x="842" y="1111"/>
      <point x="909" y="1149" type="curve"/>
      <point x="798" y="1186" type="line"/>
      <point x="790" y="928"/>
      <point x="771" y="589"/>
      <point x="762" y="402" type="curve" smooth="yes"/>
      <point x="758" y="309"/>
      <point x="737" y="248"/>
      <point x="691" y="221" type="curve" smooth="yes"/>
      <point x="679" y="213" type="line" smooth="yes"/>
      <point x="623" y="181"/>
      <point x="593" y="150"/>
      <point x="590" y="92" type="curve" smooth="yes"/>
      <point x="587" y="42"/>
      <point x="616" y="0"/>
      <point x="670" y="0" type="curve" smooth="yes"/>
      <point x="1145" y="0" type="line" smooth="yes"/>
      <point x="1208" y="0"/>
      <point x="1261" y="44"/>
      <point x="1264" y="104" type="curve" smooth="yes"/>
      <point x="1266" y="152"/>
      <point x="1253" y="181"/>
      <point x="1228" y="214" type="curve" smooth="yes"/>
      <point x="1189" y="264"/>
      <point x="1182" y="306"/>
      <point x="1182" y="404" type="curve" smooth="yes"/>
      <point x="1183" y="509"/>
      <point x="1187" y="836"/>
      <point x="1191" y="1027" type="curve" smooth="yes"/>
      <point x="1193" y="1098"/>
      <point x="1230" y="1179"/>
      <point x="1284" y="1223" type="curve" smooth="yes"/>
      <point x="1318" y="1252"/>
      <point x="1330" y="1272"/>
      <point x="1333" y="1314" type="curve" smooth="yes"/>
      <point x="1336" y="1382"/>
      <point x="1293" y="1435"/>
      <point x="1166" y="1435" type="curve" smooth="yes"/>
      <point x="920" y="1435"/>
      <point x="691" y="1285"/>
      <point x="499" y="968" type="curve" smooth="yes"/>
      <point x="187" y="430" type="line" smooth="yes"/>
      <point x="137" y="347"/>
      <point x="105" y="305"/>
      <point x="71" y="279" type="curve" smooth="yes"/>
      <point x="-8" y="219"/>
      <point x="-39" y="160"/>
      <point x="-43" y="98" type="curve" smooth="yes"/>
      <point x="-46" y="42"/>
      <point x="-8" y="0"/>
      <point x="51" y="0" type="curve" smooth="yes"/>
      <point x="336" y="0" type="line" smooth="yes"/>
      <point x="397" y="0"/>
      <point x="438" y="42"/>
      <point x="442" y="110" type="curve" smooth="yes"/>
      <point x="444" y="148"/>
      <point x="425" y="185"/>
      <point x="397" y="222" type="curve" smooth="yes"/>
      <point x="381" y="241" type="line" smooth="yes"/>
      <point x="359" y="269"/>
      <point x="347" y="321"/>
    </contour>
    <contour>
      <point x="298" y="428" type="line"/>
      <point x="859" y="428" type="line"/>
      <point x="880" y="607" type="line"/>
      <point x="326" y="607" type="line"/>
    </contour>
  </outline>
</glyph>
<glyph name="C" format="2">
  <advance width="1287"/>
  <unicode hex="0043"/>
  <outline>
    <contour>
      <point x="1195" y="485" type="curve" smooth="yes"/>
      <point x="1144" y="501"/>
      <point x="1081" y="476"/>
      <point x="1026" y="400" type="curve" smooth="yes"/>
      <point x="952" y="296"/>
      <point x="876" y="243"/>
      <point x="791" y="243" type="curve" smooth="yes"/>
      <point x="651" y="243"/>
      <point x="541" y="403"/>
      <point x="623" y="744" type="curve" smooth="yes"/>
      <point x="692" y="1038"/>
      <point x="826" y="1214"/>
      <point x="968" y="1214" type="curve" smooth="yes"/>
      <point x="1073" y="1214"/>
      <point x="1130" y="1184"/>
      <point x="1159" y="1073" type="curve" smooth="yes"/>
      <point x="1184" y="990" type="line" smooth="yes"/>
      <point x="1206" y="912"/>
      <point x="1245" y="871"/>
      <point x="1310" y="871" type="curve" smooth="yes"/>
      <point x="1365" y="871"/>
      <point x="1407" y="921"/>
      <point x="1416" y="1038" type="curve" smooth="yes"/>
      <point x="1433" y="1268" type="line" smooth="yes"/>
      <point x="1442" y="1373"/>
      <point x="1400" y="1435"/>
      <point x="1345" y="1435" type="curve" smooth="yes"/>
      <point x="1282" y="1435"/>
      <point x="1246" y="1369"/>
      <point x="1199" y="1369" type="curve" smooth="yes"/>
      <point x="1161" y="1369"/>
      <point x="1100" y="1430"/>
      <point x="942" y="1430" type="curve" smooth="yes"/>
      <point x="536" y="1430"/>
      <point x="209" y="1155"/>
      <point x="116" y="696" type="curve" smooth="yes"/>
      <point x="14" y="197"/>
      <point x="241" y="-30"/>
      <point x="598" y="-30" type="curve" smooth="yes"/>
      <point x="878" y="-30"/>
      <point x="1113" y="90"/>
      <point x="1206" y="283" type="curve" smooth="yes"/>
      <point x="1268" y="414"/>
      <point x="1247" y="470"/>
    </contour>
  </outline>
</glyph>
<glyph name="D" format="2">
  <advance width="1487"/>
  <unicode hex="0044"/>
  <outline>
    <contour>
      <point x="14" y="90" type="curve" smooth="yes"/>
      <point x="12" y="31"/>
      <point x="48" y="0"/>
      <point x="95" y="0" type="curve" smooth="yes"/>
      <point x="701" y="0" type="line" smooth="yes"/>
      <point x="1079" y="0"/>
      <point x="1391" y="213"/>
      <point x="1498" y="672" type="curve" smooth="yes"/>
      <point x="1598" y="1102"/>
      <point x="1354" y="1400"/>
      <point x="1058" y="1400" type="curve" smooth="yes"/>
      <point x="393" y="1400" type="line" smooth="yes"/>
      <point x="337" y="1400"/>
      <point x="300" y="1343"/>
      <point x="298" y="1289" type="curve" smooth="yes"/>
      <point x="296" y="1239"/>
      <point x="322" y="1217"/>
      <point x="341" y="1207" type="curve" smooth="yes"/>
      <point x="360" y="1197" type="line" smooth="yes"/>
      <point x="387" y="1183"/>
      <point x="397" y="1147"/>
      <point x="384" y="1091" type="curve" smooth="yes"/>
      <point x="362" y="1001"/>
      <point x="274" y="612"/>
      <point x="202" y="394" type="curve" smooth="yes"/>
      <point x="153" y="252"/>
      <point x="145" y="230"/>
      <point x="109" y="214" type="curve" smooth="yes"/>
      <point x="85" y="202" type="line" smooth="yes"/>
      <point x="38" y="180"/>
      <point x="16" y="136"/>
    </contour>
    <contour>
      <point x="746" y="206" type="curve" smooth="yes"/>
      <point x="714" y="206" type="line" smooth="yes"/>
      <point x="662" y="206"/>
      <point x="615" y="271"/>
      <point x="629" y="360" type="curve" smooth="yes"/>
      <point x="658" y="551"/>
      <point x="765" y="958"/>
      <point x="800" y="1055" type="curve" smooth="yes"/>
      <point x="837" y="1150"/>
      <point x="874" y="1196"/>
      <point x="934" y="1196" type="curve" smooth="yes"/>
      <point x="949" y="1196" type="line" smooth="yes"/>
      <point x="1019" y="1196"/>
      <point x="1097" y="1055"/>
      <point x="1006" y="651" type="curve" smooth="yes"/>
      <point x="928" y="303"/>
      <point x="838" y="206"/>
    </contour>
  </outline>
</glyph>
<glyph name="E" format="2">
  <advance width="1276"/>
  <unicode hex="0045"/>
  <anchor x="760" y="1468" name="center"/>
  <outline>
    <contour>
      <point x="534" y="813" type="line"/>
      <point x="485" y="632" type="line"/>
      <point x="844" y="632" type="line" smooth="yes"/>
      <point x="909" y="632"/>
      <point x="922" y="615"/>
      <point x="963" y="567" type="curve" smooth="yes"/>
      <point x="993" y="535"/>
      <point x="1030" y="512"/>
      <point x="1074" y="512" type="curve" smooth="yes"/>
      <point x="1121" y="512"/>
      <point x="1153" y="547"/>
      <point x="1149" y="623" type="curve" smooth="yes"/>
      <point x="1136" y="834" type="line" smooth="yes"/>
      <point x="1131" y="896"/>
      <point x="1093" y="934"/>
      <point x="1045" y="934" type="curve" smooth="yes"/>
      <point x="1010" y="934"/>
      <point x="987" y="916"/>
      <point x="950" y="882" type="curve" smooth="yes"/>
      <point x="901" y="824"/>
      <point x="848" y="813"/>
      <point x="783" y="813" type="curve" smooth="yes"/>
    </contour>
    <contour>
      <point x="802" y="0" type="line" smooth="yes"/>
      <point x="857" y="0"/>
      <point x="916" y="-40"/>
      <point x="974" y="-40" type="curve" smooth="yes"/>
      <point x="1093" y="-40"/>
      <point x="1217" y="117"/>
      <point x="1223" y="299" type="curve" smooth="yes"/>
      <point x="1227" y="393"/>
      <point x="1194" y="441"/>
      <point x="1148" y="441" type="curve" smooth="yes"/>
      <point x="1097" y="441"/>
      <point x="1061" y="412"/>
      <point x="1022" y="352" type="curve" smooth="yes"/>
      <point x="942" y="224"/>
      <point x="837" y="172"/>
      <point x="737" y="172" type="curve" smooth="yes"/>
      <point x="692" y="172" type="line" smooth="yes"/>
      <point x="631" y="172"/>
      <point x="595" y="213"/>
      <point x="607" y="279" type="curve" smooth="yes"/>
      <point x="630" y="409"/>
      <point x="809" y="1055"/>
      <point x="858" y="1227" type="curve"/>
      <point x="969" y="1227" type="line" smooth="yes"/>
      <point x="1039" y="1227"/>
      <point x="1103" y="1193"/>
      <point x="1145" y="1078" type="curve" smooth="yes"/>
      <point x="1171" y="1004"/>
      <point x="1216" y="956"/>
      <point x="1288" y="956" type="curve" smooth="yes"/>
      <point x="1353" y="956"/>
      <point x="1398" y="1016"/>
      <point x="1387" y="1118" type="curve" smooth="yes"/>
      <point x="1364" y="1347" type="line" smooth="yes"/>
      <point x="1356" y="1422"/>
      <point x="1317" y="1455"/>
      <point x="1258" y="1455" type="curve" smooth="yes"/>
      <point x="1197" y="1455"/>
      <point x="1141" y="1400"/>
      <point x="1051" y="1400" type="curve" smooth="yes"/>
      <point x="381" y="1400" type="line" smooth="yes"/>
      <point x="327" y="1400"/>
      <point x="288" y="1358"/>
      <point x="286" y="1300" type="curve" smooth="yes"/>
      <point x="284" y="1241"/>
      <point x="307" y="1209"/>
      <point x="331" y="1198" type="curve" smooth="yes"/>
      <point x="351" y="1188" type="line" smooth="yes"/>
      <point x="373" y="1177"/>
      <point x="392" y="1134"/>
      <point x="377" y="1053" type="curve" smooth="yes"/>
      <point x="364" y="980"/>
      <point x="202" y="394"/>
      <point x="176" y="319" type="curve" smooth="yes"/>
      <point x="150" y="243"/>
      <point x="132" y="218"/>
      <point x="91" y="203" type="curve" smooth="yes"/>
      <point x="79" y="198" type="line" smooth="yes"/>
      <point x="27" y="181"/>
      <point x="5" y="148"/>
      <point x="3" y="94" type="curve" smooth="yes"/>
      <point x="1" y="35"/>
      <point x="32" y="0"/>
      <point x="89" y="0" type="curve" smooth="yes"/>
    </contour>
  </outline>
</glyph>
<glyph name="H" format="2">
  <advance width="1616"/>
  <unicode hex="0048"/>
  <outline>
    <contour>
      <point x="594" y="775" type="line"/>
      <point x="509" y="567" type="line"/>
      <point x="1221" y="567" type="line"/>
      <point x="1307" y="775" type="line"/>
    </contour>
    <contour>
      <point x="597" y="272" type="curve" smooth="yes"/>
      <point x="606" y="322"/>
      <point x="751" y="896"/>
      <point x="826" y="1108" type="curve" smooth="yes"/>
      <point x="844" y="1161"/>
      <point x="862" y="1182"/>
      <point x="881" y="1192" type="curve" smooth="yes"/>
      <point x="897" y="1202" type="line" smooth="yes"/>
      <point x="941" y="1227"/>
      <point x="976" y="1252"/>
      <point x="978" y="1308" type="curve" smooth="yes"/>
      <point x="980" y="1362"/>
      <point x="954" y="1400"/>
      <point x="893" y="1400" type="curve" smooth="yes"/>
      <point x="386" y="1400" type="line" smooth="yes"/>
      <point x="335" y="1400"/>
      <point x="302" y="1350"/>
      <point x="300" y="1291" type="curve" smooth="yes"/>
      <point x="298" y="1240"/>
      <point x="317" y="1220"/>
      <point x="356" y="1200" type="curve" smooth="yes"/>
      <point x="364" y="1195" type="line" smooth="yes"/>
      <point x="388" y="1183"/>
      <point x="401" y="1165"/>
      <point x="392" y="1130" type="curve" smooth="yes"/>
      <point x="350" y="931"/>
      <point x="234" y="498"/>
      <point x="170" y="299" type="curve" smooth="yes"/>
      <point x="154" y="246"/>
      <point x="140" y="224"/>
      <point x="109" y="212" type="curve" smooth="yes"/>
      <point x="89" y="204" type="line" smooth="yes"/>
      <point x="49" y="189"/>
      <point x="18" y="150"/>
      <point x="16" y="94" type="curve" smooth="yes"/>
      <point x="14" y="40"/>
      <point x="43" y="0"/>
      <point x="95" y="0" type="curve" smooth="yes"/>
      <point x="581" y="0" type="line" smooth="yes"/>
      <point x="655" y="0"/>
      <point x="694" y="42"/>
      <point x="697" y="107" type="curve" smooth="yes"/>
      <point x="698" y="156"/>
      <point x="672" y="181"/>
      <point x="644" y="204" type="curve" smooth="yes"/>
      <point x="624" y="222" type="line" smooth="yes"/>
      <point x="608" y="235"/>
      <point x="593" y="248"/>
    </contour>
    <contour>
      <point x="1392" y="286" type="curve" smooth="yes"/>
      <point x="1431" y="472"/>
      <point x="1556" y="923"/>
      <point x="1618" y="1108" type="curve" smooth="yes"/>
      <point x="1636" y="1161"/>
      <point x="1654" y="1184"/>
      <point x="1673" y="1192" type="curve" smooth="yes"/>
      <point x="1699" y="1202" type="line" smooth="yes"/>
      <point x="1745" y="1218"/>
      <point x="1768" y="1252"/>
      <point x="1770" y="1308" type="curve" smooth="yes"/>
      <point x="1772" y="1362"/>
      <point x="1746" y="1400"/>
      <point x="1686" y="1400" type="curve" smooth="yes"/>
      <point x="1187" y="1400" type="line" smooth="yes"/>
      <point x="1131" y="1400"/>
      <point x="1094" y="1350"/>
      <point x="1092" y="1291" type="curve" smooth="yes"/>
      <point x="1090" y="1240"/>
      <point x="1110" y="1220"/>
      <point x="1149" y="1200" type="curve" smooth="yes"/>
      <point x="1156" y="1195" type="line" smooth="yes"/>
      <point x="1180" y="1183"/>
      <point x="1193" y="1165"/>
      <point x="1185" y="1130" type="curve" smooth="yes"/>
      <point x="1145" y="961"/>
      <point x="1044" y="555"/>
      <point x="962" y="299" type="curve" smooth="yes"/>
      <point x="946" y="246"/>
      <point x="932" y="224"/>
      <point x="902" y="212" type="curve" smooth="yes"/>
      <point x="881" y="204" type="line" smooth="yes"/>
      <point x="836" y="187"/>
      <point x="810" y="150"/>
      <point x="808" y="94" type="curve" smooth="yes"/>
      <point x="806" y="40"/>
      <point x="829" y="0"/>
      <point x="887" y="0" type="curve" smooth="yes"/>
      <point x="1365" y="0" type="line" smooth="yes"/>
      <point x="1445" y="0"/>
      <point x="1487" y="42"/>
      <point x="1490" y="107" type="curve" smooth="yes"/>
      <point x="1491" y="156"/>
      <point x="1465" y="182"/>
      <point x="1437" y="204" type="curve" smooth="yes"/>
      <point x="1416" y="222" type="line" smooth="yes"/>
      <point x="1399" y="234"/>
      <point x="1384" y="248"/>
    </contour>
  </outline>
</glyph>
<glyph name="N" format="2">
  <advance width="1445"/>
  <unicode hex="004E"/>
  <outline>
    <contour>
      <point x="420" y="387" type="line" smooth="yes"/>
      <point x="404" y="322"/>
      <point x="399" y="254"/>
      <point x="444" y="218" type="curve" smooth="yes"/>
      <point x="465" y="200" type="line" smooth="yes"/>
      <point x="498" y="175"/>
      <point x="528" y="141"/>
      <point x="526" y="89" type="curve" smooth="yes"/>
      <point x="524" y="29"/>
      <point x="494" y="0"/>
      <point x="449" y="0" type="curve" smooth="yes"/>
      <point x="60" y="0" type="line" smooth="yes"/>
      <point x="16" y="0"/>
      <point x="-11" y="31"/>
      <point x="-9" y="83" type="curve" smooth="yes"/>
      <point x="-7" y="133"/>
      <point x="26" y="167"/>
      <point x="78" y="202" type="curve" smooth="yes"/>
      <point x="120" y="231" type="line" smooth="yes"/>
      <point x="161" y="259"/>
      <point x="188" y="313"/>
      <point x="214" y="408" type="curve" smooth="yes"/>
      <point x="351" y="924" type="line" smooth="yes"/>
      <point x="376" y="1015"/>
      <point x="377" y="1099"/>
      <point x="332" y="1151" type="curve" smooth="yes"/>
      <point x="297" y="1198" type="line" smooth="yes"/>
      <point x="228" y="1276"/>
      <point x="249" y="1400"/>
      <point x="369" y="1400" type="curve" smooth="yes"/>
      <point x="591" y="1400" type="line" smooth="yes"/>
      <point x="699" y="1400"/>
      <point x="755" y="1342"/>
      <point x="800" y="1246" type="curve" smooth="yes"/>
      <point x="929" y="974"/>
      <point x="1070" y="635"/>
      <point x="1188" y="400" type="curve"/>
      <point x="1015" y="288" type="line"/>
      <point x="1196" y="1139" type="line" smooth="yes"/>
      <point x="1240" y="1350"/>
      <point x="1337" y="1456"/>
      <point x="1488" y="1456" type="curve" smooth="yes"/>
      <point x="1610" y="1456"/>
      <point x="1675" y="1396"/>
      <point x="1670" y="1272" type="curve" smooth="yes"/>
      <point x="1667" y="1169"/>
      <point x="1612" y="1089"/>
      <point x="1501" y="1025" type="curve" smooth="yes"/>
      <point x="1390" y="961"/>
      <point x="1323" y="860"/>
      <point x="1299" y="725" type="curve" smooth="yes"/>
      <point x="1259" y="466" type="line" smooth="yes"/>
      <point x="1249" y="403"/>
      <point x="1239" y="350"/>
      <point x="1261" y="291" type="curve" smooth="yes"/>
      <point x="1303" y="178" type="line" smooth="yes"/>
      <point x="1337" y="92"/>
      <point x="1299" y="0"/>
      <point x="1217" y="0" type="curve" smooth="yes"/>
      <point x="912" y="0" type="line" smooth="yes"/>
      <point x="838" y="0"/>
      <point x="793" y="47"/>
      <point x="796" y="135" type="curve" smooth="yes"/>
      <point x="799" y="218"/>
      <point x="786" y="294"/>
      <point x="747" y="374" type="curve" smooth="yes"/>
      <point x="695" y="483"/>
      <point x="558" y="770"/>
      <point x="398" y="1084" type="curve"/>
      <point x="584" y="1098" type="line"/>
    </contour>
  </outline>
</glyph>
<glyph name="P" format="2">
  <advance width="1360"/>
  <unicode hex="0050"/>
  <outline>
    <contour>
      <point x="1457" y="884" type="curve" smooth="yes"/>
      <point x="1497" y="1213"/>
      <point x="1313" y="1400"/>
      <point x="989" y="1400" type="curve" smooth="yes"/>
      <point x="394" y="1400" type="line" smooth="yes"/>
      <point x="330" y="1400"/>
      <point x="288" y="1353"/>
      <point x="286" y="1298" type="curve" smooth="yes"/>
      <point x="285" y="1259"/>
      <point x="304" y="1219"/>
      <point x="327" y="1210" type="curve" smooth="yes"/>
      <point x="351" y="1201" type="line" smooth="yes"/>
      <point x="379" y="1190"/>
      <point x="392" y="1169"/>
      <point x="389" y="1133" type="curve" smooth="yes"/>
      <point x="376" y="1029"/>
      <point x="236" y="505"/>
      <point x="167" y="293" type="curve" smooth="yes"/>
      <point x="155" y="253"/>
      <point x="141" y="220"/>
      <point x="111" y="214" type="curve" smooth="yes"/>
      <point x="84" y="208" type="line" smooth="yes"/>
      <point x="45" y="199"/>
      <point x="15" y="154"/>
      <point x="14" y="101" type="curve" smooth="yes"/>
      <point x="11" y="35"/>
      <point x="40" y="0"/>
      <point x="96" y="0" type="curve" smooth="yes"/>
      <point x="608" y="0" type="line" smooth="yes"/>
      <point x="679" y="0"/>
      <point x="713" y="45"/>
      <point x="715" y="105" type="curve" smooth="yes"/>
      <point x="716" y="153"/>
      <point x="693" y="190"/>
      <point x="657" y="199" type="curve" smooth="yes"/>
      <point x="638" y="205" type="line" smooth="yes"/>
      <point x="599" y="215"/>
      <point x="589" y="261"/>
      <point x="601" y="312" type="curve" smooth="yes"/>
      <point x="653" y="536"/>
      <point x="783" y="1000"/>
      <point x="793" y="1046" type="curve" smooth="yes"/>
      <point x="823" y="1151"/>
      <point x="875" y="1194"/>
      <point x="926" y="1194" type="curve" smooth="yes"/>
      <point x="992" y="1194"/>
      <point x="1061" y="1112"/>
      <point x="1031" y="906" type="curve" smooth="yes"/>
      <point x="1000" y="703"/>
      <point x="916" y="610"/>
      <point x="786" y="610" type="curve" smooth="yes"/>
      <point x="685" y="610"/>
      <point x="586" y="655"/>
      <point x="510" y="734" type="curve"/>
      <point x="392" y="566" type="line"/>
      <point x="564" y="446"/>
      <point x="672" y="399"/>
      <point x="909" y="399" type="curve" smooth="yes"/>
      <point x="1195" y="399"/>
      <point x="1418" y="570"/>
    </contour>
  </outline>
</glyph>
<glyph name="Q" format="2">
  <advance width="1504"/>
  <unicode hex="0051"/>
  <outline>
    <contour>
      <point x="680" y="375" type="curve" smooth="yes"/>
      <point x="539" y="-142"/>
      <point x="710" y="-393"/>
      <point x="1002" y="-393" type="curve" smooth="yes"/>
      <point x="1064" y="-393"/>
      <point x="1119" y="-347"/>
      <point x="1158" y="-292" type="curve" smooth="yes"/>
      <point x="1247" y="-169" type="line" smooth="yes"/>
      <point x="1269" y="-138"/>
      <point x="1263" y="-95"/>
      <point x="1242" y="-88" type="curve" smooth="yes"/>
      <point x="1212" y="-78"/>
      <point x="1171" y="-132"/>
      <point x="1078" y="-132" type="curve" smooth="yes"/>
      <point x="793" y="-132"/>
      <point x="689" y="20"/>
      <point x="772" y="352" type="curve" smooth="yes"/>
      <point x="784" y="399"/>
      <point x="777" y="426"/>
      <point x="743" y="433" type="curve" smooth="yes"/>
      <point x="712" y="440"/>
      <point x="690" y="415"/>
    </contour>
    <contour>
      <point x="1038" y="1430" type="curve" smooth="yes"/>
      <point x="587" y="1457"/>
      <point x="223" y="1142"/>
      <point x="123" y="730" type="curve" smooth="yes"/>
      <point x="16" y="287"/>
      <point x="204" y="-10"/>
      <point x="600" y="-30" type="curve" smooth="yes"/>
      <point x="1004" y="-50"/>
      <point x="1404" y="199"/>
      <point x="1532" y="706" type="curve" smooth="yes"/>
      <point x="1634" y="1108"/>
      <point x="1474" y="1405"/>
    </contour>
    <contour>
      <point x="668" y="135" type="curve" smooth="yes"/>
      <point x="588" y="138"/>
      <point x="534" y="306"/>
      <point x="641" y="727" type="curve" smooth="yes"/>
      <point x="737" y="1102"/>
      <point x="871" y="1238"/>
      <point x="982" y="1222" type="curve" smooth="yes"/>
      <point x="1086" y="1206"/>
      <point x="1107" y="1055"/>
      <point x="1014" y="709" type="curve" smooth="yes"/>
      <point x="896" y="269"/>
      <point x="770" y="129"/>
    </contour>
  </outline>
</glyph>
<glyph name="R" format="2">
  <advance width="1491"/>
  <unicode hex="0052"/>
  <outline>
    <contour>
      <point x="475" y="589" type="line"/>
      <point x="567" y="532"/>
      <point x="710" y="502"/>
      <point x="866" y="506" type="curve" smooth="yes"/>
      <point x="1220" y="513"/>
      <point x="1452" y="642"/>
      <point x="1502" y="886" type="curve" smooth="yes"/>
      <point x="1565" y="1203"/>
      <point x="1367" y="1401"/>
      <point x="966" y="1400" type="curve" smooth="yes"/>
      <point x="391" y="1399" type="line" smooth="yes"/>
      <point x="321" y="1399"/>
      <point x="279" y="1359"/>
      <point x="277" y="1286" type="curve" smooth="yes"/>
      <point x="275" y="1233"/>
      <point x="299" y="1204"/>
      <point x="338" y="1184" type="curve" smooth="yes"/>
      <point x="358" y="1174" type="line" smooth="yes"/>
      <point x="386" y="1159"/>
      <point x="396" y="1129"/>
      <point x="383" y="1070" type="curve" smooth="yes"/>
      <point x="354" y="937"/>
      <point x="205" y="405"/>
      <point x="168" y="293" type="curve" smooth="yes"/>
      <point x="155" y="250"/>
      <point x="137" y="232"/>
      <point x="112" y="218" type="curve" smooth="yes"/>
      <point x="87" y="204" type="line" smooth="yes"/>
      <point x="49" y="184"/>
      <point x="26" y="158"/>
      <point x="23" y="92" type="curve" smooth="yes"/>
      <point x="21" y="35"/>
      <point x="54" y="0"/>
      <point x="104" y="0" type="curve" smooth="yes"/>
      <point x="600" y="0" type="line" smooth="yes"/>
      <point x="654" y="0"/>
      <point x="694" y="38"/>
      <point x="697" y="103" type="curve" smooth="yes"/>
      <point x="699" y="158"/>
      <point x="673" y="184"/>
      <point x="640" y="206" type="curve" smooth="yes"/>
      <point x="633" y="211" type="line" smooth="yes"/>
      <point x="604" y="231"/>
      <point x="599" y="266"/>
      <point x="615" y="334" type="curve" smooth="yes"/>
      <point x="655" y="497"/>
      <point x="763" y="926"/>
      <point x="807" y="1068" type="curve" smooth="yes"/>
      <point x="830" y="1140"/>
      <point x="882" y="1190"/>
      <point x="964" y="1190" type="curve" smooth="yes"/>
      <point x="1039" y="1190"/>
      <point x="1099" y="1111"/>
      <point x="1071" y="920" type="curve" smooth="yes"/>
      <point x="1046" y="750"/>
      <point x="944" y="674"/>
      <point x="814" y="674" type="curve" smooth="yes"/>
      <point x="720" y="674"/>
      <point x="650" y="712"/>
      <point x="601" y="751" type="curve"/>
    </contour>
    <contour>
      <point x="756" y="516" type="line"/>
      <point x="831" y="142" type="line" smooth="yes"/>
      <point x="851" y="39"/>
      <point x="937" y="-24"/>
      <point x="1054" y="-24" type="curve" smooth="yes"/>
      <point x="1221" y="-24"/>
      <point x="1355" y="50"/>
      <point x="1425" y="230" type="curve" smooth="yes"/>
      <point x="1450" y="293"/>
      <point x="1434" y="340"/>
      <point x="1403" y="353" type="curve" smooth="yes"/>
      <point x="1376" y="366"/>
      <point x="1351" y="359"/>
      <point x="1333" y="351" type="curve" smooth="yes"/>
      <point x="1314" y="340"/>
      <point x="1293" y="328"/>
      <point x="1267" y="328" type="curve" smooth="yes"/>
      <point x="1227" y="328"/>
      <point x="1198" y="355"/>
      <point x="1187" y="409" type="curve" smooth="yes"/>
      <point x="1153" y="591" type="line"/>
    </contour>
  </outline>
</glyph>
<glyph name="V" format="2">
  <advance width="1356"/>
  <unicode hex="0056"/>
  <outline>
    <contour>
      <point x="1059" y="1296" type="curve" smooth="yes"/>
      <point x="1058" y="1256"/>
      <point x="1078" y="1222"/>
      <point x="1111" y="1196" type="curve" smooth="yes"/>
      <point x="1133" y="1178" type="line" smooth="yes"/>
      <point x="1184" y="1138"/>
      <point x="1174" y="1101"/>
      <point x="1098" y="979" type="curve" smooth="yes"/>
      <point x="585" y="125" type="line"/>
      <point x="739" y="156" type="line"/>
      <point x="744" y="453"/>
      <point x="731" y="862"/>
      <point x="740" y="1015" type="curve" smooth="yes"/>
      <point x="748" y="1133"/>
      <point x="764" y="1170"/>
      <point x="804" y="1184" type="curve" smooth="yes"/>
      <point x="828" y="1192" type="line" smooth="yes"/>
      <point x="871" y="1207"/>
      <point x="898" y="1244"/>
      <point x="901" y="1308" type="curve" smooth="yes"/>
      <point x="903" y="1367"/>
      <point x="870" y="1400"/>
      <point x="820" y="1400" type="curve" smooth="yes"/>
      <point x="346" y="1400" type="line" smooth="yes"/>
      <point x="287" y="1400"/>
      <point x="231" y="1352"/>
      <point x="229" y="1294" type="curve" smooth="yes"/>
      <point x="227" y="1242"/>
      <point x="252" y="1213"/>
      <point x="277" y="1186" type="curve" smooth="yes"/>
      <point x="286" y="1176" type="line" smooth="yes"/>
      <point x="309" y="1152"/>
      <point x="324" y="1123"/>
      <point x="325" y="1064" type="curve" smooth="yes"/>
      <point x="327" y="917"/>
      <point x="331" y="461"/>
      <point x="332" y="376" type="curve" smooth="yes"/>
      <point x="333" y="332"/>
      <point x="339" y="259"/>
      <point x="326" y="214" type="curve" smooth="yes"/>
      <point x="303" y="136" type="line" smooth="yes"/>
      <point x="281" y="60"/>
      <point x="309" y="0"/>
      <point x="371" y="0" type="curve" smooth="yes"/>
      <point x="723" y="0" type="line" smooth="yes"/>
      <point x="792" y="0"/>
      <point x="818" y="55"/>
      <point x="835" y="111" type="curve" smooth="yes"/>
      <point x="853" y="171" type="line" smooth="yes"/>
      <point x="864" y="210"/>
      <point x="876" y="241"/>
      <point x="904" y="282" type="curve" smooth="yes"/>
      <point x="1313" y="932" type="line" smooth="yes"/>
      <point x="1404" y="1070"/>
      <point x="1438" y="1101"/>
      <point x="1494" y="1144" type="curve" smooth="yes"/>
      <point x="1511" y="1158" type="line" smooth="yes"/>
      <point x="1560" y="1195"/>
      <point x="1585" y="1229"/>
      <point x="1587" y="1287" type="curve" smooth="yes"/>
      <point x="1589" y="1360"/>
      <point x="1555" y="1400"/>
      <point x="1489" y="1400" type="curve" smooth="yes"/>
      <point x="1143" y="1400" type="line" smooth="yes"/>
      <point x="1094" y="1400"/>
      <point x="1061" y="1358"/>
    </contour>
  </outline>
</glyph>
<glyph name="X" format="2">
  <advance width="1410"/>
  <unicode hex="0058"/>
  <outline>
    <contour>
      <point x="598" y="764" type="line"/>
      <point x="260" y="397" type="line" smooth="yes"/>
      <point x="182" y="312"/>
      <point x="134" y="255"/>
      <point x="60" y="224" type="curve" smooth="yes"/>
      <point x="-5" y="198"/>
      <point x="-40" y="164"/>
      <point x="-42" y="107" type="curve" smooth="yes"/>
      <point x="-45" y="40"/>
      <point x="-10" y="0"/>
      <point x="70" y="0" type="curve" smooth="yes"/>
      <point x="373" y="0" type="line" smooth="yes"/>
      <point x="431" y="0"/>
      <point x="479" y="42"/>
      <point x="482" y="102" type="curve" smooth="yes"/>
      <point x="483" y="150"/>
      <point x="463" y="179"/>
      <point x="438" y="199" type="curve" smooth="yes"/>
      <point x="424" y="210" type="line" smooth="yes"/>
      <point x="386" y="240"/>
      <point x="393" y="282"/>
      <point x="447" y="343" type="curve" smooth="yes"/>
      <point x="690" y="625" type="line"/>
    </contour>
    <contour>
      <point x="848" y="1108" type="curve" smooth="yes"/>
      <point x="832" y="1150"/>
      <point x="862" y="1179"/>
      <point x="888" y="1194" type="curve" smooth="yes"/>
      <point x="909" y="1206" type="line" smooth="yes"/>
      <point x="946" y="1226"/>
      <point x="966" y="1254"/>
      <point x="968" y="1310" type="curve" smooth="yes"/>
      <point x="970" y="1367"/>
      <point x="944" y="1400"/>
      <point x="891" y="1400" type="curve" smooth="yes"/>
      <point x="365" y="1400" type="line" smooth="yes"/>
      <point x="296" y="1400"/>
      <point x="249" y="1364"/>
      <point x="247" y="1310" type="curve" smooth="yes"/>
      <point x="245" y="1265"/>
      <point x="261" y="1229"/>
      <point x="307" y="1208" type="curve" smooth="yes"/>
      <point x="347" y="1190"/>
      <point x="364" y="1171"/>
      <point x="387" y="1114" type="curve" smooth="yes"/>
      <point x="475" y="898"/>
      <point x="670" y="389"/>
      <point x="698" y="312" type="curve" smooth="yes"/>
      <point x="714" y="271"/>
      <point x="702" y="239"/>
      <point x="681" y="218" type="curve" smooth="yes"/>
      <point x="671" y="208" type="line" smooth="yes"/>
      <point x="620" y="157"/>
      <point x="599" y="127"/>
      <point x="598" y="85" type="curve" smooth="yes"/>
      <point x="596" y="37"/>
      <point x="635" y="0"/>
      <point x="694" y="0" type="curve" smooth="yes"/>
      <point x="1204" y="0" type="line" smooth="yes"/>
      <point x="1269" y="0"/>
      <point x="1308" y="40"/>
      <point x="1310" y="96" type="curve" smooth="yes"/>
      <point x="1312" y="152"/>
      <point x="1286" y="174"/>
      <point x="1246" y="196" type="curve" smooth="yes"/>
      <point x="1207" y="218"/>
      <point x="1180" y="242"/>
      <point x="1158" y="301" type="curve" smooth="yes"/>
      <point x="1069" y="531"/>
      <point x="896" y="978"/>
    </contour>
    <contour>
      <point x="957" y="666" type="line"/>
      <point x="1209" y="964" type="line" smooth="yes"/>
      <point x="1255" y="1019"/>
      <point x="1303" y="1039"/>
      <point x="1353" y="1039" type="curve" smooth="yes"/>
      <point x="1390" y="1039"/>
      <point x="1412" y="1028"/>
      <point x="1459" y="1028" type="curve" smooth="yes"/>
      <point x="1549" y="1028"/>
      <point x="1646" y="1115"/>
      <point x="1651" y="1251" type="curve" smooth="yes"/>
      <point x="1654" y="1352"/>
      <point x="1604" y="1431"/>
      <point x="1499" y="1431" type="curve" smooth="yes"/>
      <point x="1401" y="1431"/>
      <point x="1326" y="1366"/>
      <point x="1219" y="1238" type="curve" smooth="yes"/>
      <point x="848" y="788" type="line"/>
    </contour>
  </outline>
</glyph>
<glyph name="Z" format="2">
  <advance width="1333"/>
  <unicode hex="005A"/>
  <outline>
    <contour>
      <point x="725" y="0" type="line" smooth="yes"/>
      <point x="816" y="0"/>
      <point x="869" y="-41"/>
      <point x="933" y="-41" type="curve" smooth="yes"/>
      <point x="1116" y="-41"/>
      <point x="1285" y="150"/>
      <point x="1293" y="361" type="curve" smooth="yes"/>
      <point x="1298" y="503"/>
      <point x="1268" y="566"/>
      <point x="1208" y="566" type="curve" smooth="yes"/>
      <point x="1154" y="566"/>
      <point x="1113" y="543"/>
      <point x="1068" y="457" type="curve" smooth="yes"/>
      <point x="959" y="251"/>
      <point x="823" y="191"/>
      <point x="664" y="191" type="curve" smooth="yes"/>
      <point x="541" y="191" type="line"/>
      <point x="544" y="159" type="line"/>
      <point x="787" y="462"/>
      <point x="1249" y="993"/>
      <point x="1337" y="1094" type="curve" smooth="yes"/>
      <point x="1404" y="1167"/>
      <point x="1458" y="1225"/>
      <point x="1460" y="1287" type="curve" smooth="yes"/>
      <point x="1463" y="1367"/>
      <point x="1427" y="1402"/>
      <point x="1340" y="1402" type="curve" smooth="yes"/>
      <point x="679" y="1402" type="line" smooth="yes"/>
      <point x="605" y="1402"/>
      <point x="574" y="1447"/>
      <point x="523" y="1447" type="curve" smooth="yes"/>
      <point x="449" y="1447"/>
      <point x="420" y="1408"/>
      <point x="364" y="1314" type="curve" smooth="yes"/>
      <point x="268" y="1147" type="line" smooth="yes"/>
      <point x="217" y="1062"/>
      <point x="230" y="974"/>
      <point x="288" y="947" type="curve" smooth="yes"/>
      <point x="335" y="925"/>
      <point x="422" y="942"/>
      <point x="485" y="1024" type="curve" smooth="yes"/>
      <point x="596" y="1169"/>
      <point x="727" y="1229"/>
      <point x="837" y="1230" type="curve" smooth="yes"/>
      <point x="1044" y="1232" type="line"/>
      <point x="1009" y="1305" type="line"/>
      <point x="872" y="1141"/>
      <point x="318" y="504"/>
      <point x="154" y="323" type="curve" smooth="yes"/>
      <point x="89" y="254"/>
      <point x="34" y="183"/>
      <point x="32" y="117" type="curve" smooth="yes"/>
      <point x="29" y="36"/>
      <point x="67" y="0"/>
      <point x="156" y="0" type="curve" smooth="yes"/>
    </contour>
  </outline>
</glyph>
<glyph name="a" format="2">
  <advance width="1079"/>
  <unicode hex="0061"/>
  <anchor x="660" y="928" name="center"/>
  <outline>
    <contour>
      <point x="925" y="393" type="curve" smooth="yes"/>
      <point x="977" y="574" type="line" smooth="yes"/>
      <point x="1000" y="647"/>
      <point x="1066" y="651"/>
      <point x="1080" y="737" type="curve" smooth="yes"/>
      <point x="1096" y="840"/>
      <point x="1010" y="902"/>
      <point x="704" y="902" type="curve" smooth="yes"/>
      <point x="307" y="902"/>
      <point x="82" y="606"/>
      <point x="37" y="329" type="curve" smooth="yes"/>
      <point x="-1" y="88"/>
      <point x="88" y="-26"/>
      <point x="240" y="-26" type="curve" smooth="yes"/>
      <point x="417" y="-26"/>
      <point x="524" y="57"/>
      <point x="626" y="240" type="curve"/>
      <point x="609" y="353" type="line"/>
      <point x="597" y="286"/>
      <point x="590" y="224"/>
      <point x="587" y="149" type="curve" smooth="yes"/>
      <point x="583" y="41"/>
      <point x="632" y="-26"/>
      <point x="706" y="-26" type="curve" smooth="yes"/>
      <point x="864" y="-26"/>
      <point x="983" y="55"/>
      <point x="1033" y="189" type="curve" smooth="yes"/>
      <point x="1059" y="260"/>
      <point x="1053" y="298"/>
      <point x="1031" y="311" type="curve" smooth="yes"/>
      <point x="1018" y="320"/>
      <point x="999" y="320"/>
      <point x="985" y="312" type="curve" smooth="yes"/>
      <point x="968" y="303"/>
      <point x="961" y="294"/>
      <point x="940" y="294" type="curve" smooth="yes"/>
      <point x="912" y="294"/>
      <point x="905" y="329"/>
    </contour>
    <contour>
      <point x="414" y="356" type="curve" smooth="yes"/>
      <point x="452" y="521"/>
      <point x="542" y="696"/>
      <point x="616" y="696" type="curve" smooth="yes"/>
      <point x="647" y="696"/>
      <point x="669" y="658"/>
      <point x="659" y="596" type="curve" smooth="yes"/>
      <point x="625" y="390"/>
      <point x="511" y="230"/>
      <point x="442" y="230" type="curve" smooth="yes"/>
      <point x="415" y="230"/>
      <point x="394" y="263"/>
    </contour>
  </outline>
</glyph>
<glyph name="b" format="2">
  <advance width="1040"/>
  <unicode hex="0062"/>
  <outline>
    <contour>
      <point x="618" y="986" type="line" smooth="yes"/>
      <point x="653" y="1087"/>
      <point x="663" y="1121"/>
      <point x="706" y="1121" type="curve" smooth="yes"/>
      <point x="806" y="1121"/>
      <point x="888" y="948"/>
      <point x="1037" y="948" type="curve" smooth="yes"/>
      <point x="1133" y="948"/>
      <point x="1196" y="1024"/>
      <point x="1199" y="1117" type="curve" smooth="yes"/>
      <point x="1204" y="1248"/>
      <point x="1085" y="1335"/>
      <point x="911" y="1335" type="curve" smooth="yes"/>
      <point x="527" y="1335"/>
      <point x="319" y="1160"/>
      <point x="234" y="890" type="curve" smooth="yes"/>
      <point x="40" y="260" type="line" smooth="yes"/>
      <point x="-23" y="63"/>
      <point x="26" y="0"/>
      <point x="115" y="0" type="curve" smooth="yes"/>
      <point x="169" y="0"/>
      <point x="210" y="29"/>
      <point x="239" y="58" type="curve" smooth="yes"/>
      <point x="357" y="175" type="line"/>
      <point x="277" y="247" type="line"/>
      <point x="270" y="52"/>
      <point x="375" y="-24"/>
      <point x="513" y="-24" type="curve" smooth="yes"/>
      <point x="781" y="-24"/>
      <point x="1045" y="263"/>
      <point x="1057" y="610" type="curve" smooth="yes"/>
      <point x="1064" y="789"/>
      <point x="974" y="894"/>
      <point x="818" y="894" type="curve" smooth="yes"/>
      <point x="664" y="894"/>
      <point x="534" y="779"/>
      <point x="450" y="596" type="curve"/>
      <point x="482" y="592" type="line"/>
    </contour>
    <contour>
      <point x="631" y="682" type="curve" smooth="yes"/>
      <point x="654" y="682"/>
      <point x="682" y="666"/>
      <point x="679" y="587" type="curve" smooth="yes"/>
      <point x="671" y="342"/>
      <point x="541" y="155"/>
      <point x="465" y="155" type="curve" smooth="yes"/>
      <point x="435" y="155"/>
      <point x="423" y="181"/>
      <point x="425" y="238" type="curve" smooth="yes"/>
      <point x="432" y="442"/>
      <point x="554" y="682"/>
    </contour>
  </outline>
</glyph>
<glyph name="d" format="2">
  <advance width="1112"/>
  <unicode hex="0064"/>
  <outline>
    <contour>
      <point x="976" y="627" type="line"/>
      <point x="988" y="769"/>
      <point x="896" y="891"/>
      <point x="708" y="891" type="curve" smooth="yes"/>
      <point x="367" y="891"/>
      <point x="125" y="676"/>
      <point x="60" y="401" type="curve" smooth="yes"/>
      <point x="-4" y="128"/>
      <point x="86" y="-28"/>
      <point x="268" y="-28" type="curve" smooth="yes"/>
      <point x="423" y="-28"/>
      <point x="560" y="66"/>
      <point x="652" y="271" type="curve"/>
      <point x="617" y="265" type="line"/>
      <point x="614" y="235"/>
      <point x="607" y="200"/>
      <point x="605" y="152" type="curve" smooth="yes"/>
      <point x="601" y="31"/>
      <point x="654" y="-28"/>
      <point x="745" y="-28" type="curve" smooth="yes"/>
      <point x="849" y="-28"/>
      <point x="999" y="50"/>
      <point x="1065" y="170" type="curve" smooth="yes"/>
      <point x="1101" y="234"/>
      <point x="1100" y="280"/>
      <point x="1077" y="302" type="curve" smooth="yes"/>
      <point x="1058" y="320"/>
      <point x="1039" y="319"/>
      <point x="1017" y="306" type="curve" smooth="yes"/>
      <point x="995" y="294"/>
      <point x="988" y="293"/>
      <point x="975" y="293" type="curve" smooth="yes"/>
      <point x="952" y="293"/>
      <point x="945" y="308"/>
      <point x="970" y="387" type="curve" smooth="yes"/>
      <point x="1052" y="649" type="line" smooth="yes"/>
      <point x="1103" y="803"/>
      <point x="969" y="913"/>
      <point x="971" y="1000" type="curve" smooth="yes"/>
      <point x="972" y="1039"/>
      <point x="993" y="1068"/>
      <point x="1032" y="1068" type="curve" smooth="yes"/>
      <point x="1097" y="1068"/>
      <point x="1173" y="1023"/>
      <point x="1253" y="1023" type="curve" smooth="yes"/>
      <point x="1344" y="1023"/>
      <point x="1403" y="1081"/>
      <point x="1407" y="1191" type="curve" smooth="yes"/>
      <point x="1410" y="1283"/>
      <point x="1343" y="1365"/>
      <point x="1205" y="1365" type="curve" smooth="yes"/>
      <point x="1029" y="1365"/>
      <point x="894" y="1261"/>
      <point x="806" y="997" type="curve" smooth="yes"/>
      <point x="609" y="407" type="line" smooth="yes"/>
      <point x="569" y="277"/>
      <point x="524" y="225"/>
      <point x="468" y="225" type="curve" smooth="yes"/>
      <point x="432" y="225"/>
      <point x="409" y="248"/>
      <point x="411" y="314" type="curve" smooth="yes"/>
      <point x="417" y="476"/>
      <point x="526" y="704"/>
      <point x="637" y="704" type="curve" smooth="yes"/>
      <point x="677" y="704"/>
      <point x="694" y="679"/>
      <point x="688" y="612" type="curve"/>
    </contour>
  </outline>
</glyph>
<glyph name="f" format="2">
  <advance width="686"/>
  <unicode hex="0066"/>
  <outline>
    <contour>
      <point x="383" y="538" type="line"/>
      <point x="590" y="538" type="line" smooth="yes"/>
      <point x="687" y="538"/>
      <point x="758" y="608"/>
      <point x="762" y="702" type="curve" smooth="yes"/>
      <point x="764" y="775"/>
      <point x="718" y="810"/>
      <point x="637" y="810" type="curve" smooth="yes"/>
      <point x="474" y="810" type="line"/>
    </contour>
    <contour>
      <point x="52" y="714" type="curve" smooth="yes"/>
      <point x="50" y="670"/>
      <point x="86" y="635"/>
      <point x="139" y="590" type="curve" smooth="yes"/>
      <point x="172" y="556"/>
      <point x="186" y="518"/>
      <point x="162" y="444" type="curve" smooth="yes"/>
      <point x="1" y="-56" type="line" smooth="yes"/>
      <point x="-24" y="-131"/>
      <point x="-41" y="-190"/>
      <point x="-43" y="-256" type="curve" smooth="yes"/>
      <point x="-46" y="-344"/>
      <point x="3" y="-393"/>
      <point x="88" y="-393" type="curve" smooth="yes"/>
      <point x="264" y="-393"/>
      <point x="453" y="-298"/>
      <point x="457" y="-174" type="curve" smooth="yes"/>
      <point x="460" y="-92"/>
      <point x="373" y="-77"/>
      <point x="376" y="-4" type="curve" smooth="yes"/>
      <point x="377" y="17"/>
      <point x="379" y="47"/>
      <point x="389" y="85" type="curve" smooth="yes"/>
      <point x="549" y="656" type="line" smooth="yes"/>
      <point x="597" y="821"/>
      <point x="452" y="906"/>
      <point x="454" y="983" type="curve" smooth="yes"/>
      <point x="456" y="1030"/>
      <point x="477" y="1060"/>
      <point x="508" y="1060" type="curve" smooth="yes"/>
      <point x="602" y="1060"/>
      <point x="646" y="953"/>
      <point x="765" y="953" type="curve" smooth="yes"/>
      <point x="854" y="953"/>
      <point x="922" y="1028"/>
      <point x="926" y="1149" type="curve" smooth="yes"/>
      <point x="930" y="1266"/>
      <point x="857" y="1365"/>
      <point x="716" y="1365" type="curve" smooth="yes"/>
      <point x="438" y="1365"/>
      <point x="268" y="1178"/>
      <point x="237" y="874" type="curve" smooth="yes"/>
      <point x="232" y="810" type="line"/>
      <point x="169" y="810" type="line" smooth="yes"/>
      <point x="100" y="810"/>
      <point x="54" y="770"/>
    </contour>
  </outline>
</glyph>
<glyph name="g" format="2">
  <advance width="1039"/>
  <unicode hex="0067"/>
  <outline>
    <contour>
      <point x="873" y="37" type="curve" smooth="yes"/>
      <point x="1016" y="581" type="line" smooth="yes"/>
      <point x="1041" y="673"/>
      <point x="1074" y="684"/>
      <point x="1089" y="744" type="curve" smooth="yes"/>
      <point x="1111" y="839"/>
      <point x="1017" y="902"/>
      <point x="713" y="902" type="curve" smooth="yes"/>
      <point x="316" y="902"/>
      <point x="89" y="606"/>
      <point x="44" y="329" type="curve" smooth="yes"/>
      <point x="7" y="88"/>
      <point x="97" y="-26"/>
      <point x="249" y="-26" type="curve" smooth="yes"/>
      <point x="426" y="-26"/>
      <point x="529" y="57"/>
      <point x="638" y="248" type="curve"/>
      <point x="605" y="302" type="line"/>
      <point x="492" y="-121" type="line" smooth="yes"/>
      <point x="465" y="-224"/>
      <point x="446" y="-256"/>
      <point x="408" y="-256" type="curve" smooth="yes"/>
      <point x="308" y="-256"/>
      <point x="231" y="-82"/>
      <point x="81" y="-82" type="curve" smooth="yes"/>
      <point x="-15" y="-82"/>
      <point x="-78" y="-159"/>
      <point x="-81" y="-251" type="curve" smooth="yes"/>
      <point x="-85" y="-382"/>
      <point x="34" y="-468"/>
      <point x="205" y="-468" type="curve" smooth="yes"/>
      <point x="587" y="-468"/>
      <point x="787" y="-298"/>
    </contour>
    <contour>
      <point x="422" y="354" type="curve" smooth="yes"/>
      <point x="460" y="520"/>
      <point x="550" y="696"/>
      <point x="624" y="696" type="curve" smooth="yes"/>
      <point x="657" y="696"/>
      <point x="678" y="659"/>
      <point x="667" y="596" type="curve" smooth="yes"/>
      <point x="632" y="393"/>
      <point x="517" y="230"/>
      <point x="450" y="230" type="curve" smooth="yes"/>
      <point x="423" y="230"/>
      <point x="402" y="262"/>
    </contour>
  </outline>
</glyph>
<glyph name="h" format="2">
  <advance width="1075"/>
  <unicode hex="0068"/>
  <outline>
    <contour>
      <point x="456" y="438" type="curve" smooth="yes"/>
      <point x="424" y="350"/>
      <point x="406" y="311"/>
      <point x="405" y="273" type="curve" smooth="yes"/>
      <point x="403" y="229"/>
      <point x="424" y="190"/>
      <point x="422" y="135" type="curve" smooth="yes"/>
      <point x="418" y="36"/>
      <point x="306" y="-28"/>
      <point x="140" y="-28" type="curve" smooth="yes"/>
      <point x="-2" y="-28"/>
      <point x="-33" y="51"/>
      <point x="31" y="258" type="curve" smooth="yes"/>
      <point x="227" y="889" type="line" smooth="yes"/>
      <point x="311" y="1159"/>
      <point x="517" y="1335"/>
      <point x="901" y="1335" type="curve" smooth="yes"/>
      <point x="1076" y="1335"/>
      <point x="1195" y="1248"/>
      <point x="1190" y="1117" type="curve" smooth="yes"/>
      <point x="1187" y="1025"/>
      <point x="1125" y="948"/>
      <point x="1028" y="948" type="curve" smooth="yes"/>
      <point x="880" y="948"/>
      <point x="797" y="1121"/>
      <point x="697" y="1121" type="curve" smooth="yes"/>
      <point x="657" y="1121"/>
      <point x="644" y="1087"/>
      <point x="611" y="986" type="curve" smooth="yes"/>
      <point x="475" y="593" type="line"/>
      <point x="465" y="599" type="line"/>
      <point x="599" y="809"/>
      <point x="748" y="894"/>
      <point x="898" y="894" type="curve" smooth="yes"/>
      <point x="1070" y="894"/>
      <point x="1082" y="739"/>
      <point x="1004" y="553" type="curve" smooth="yes"/>
      <point x="937" y="390" type="line" smooth="yes"/>
      <point x="911" y="326"/>
      <point x="910" y="292"/>
      <point x="941" y="292" type="curve" smooth="yes"/>
      <point x="955" y="292"/>
      <point x="962" y="294"/>
      <point x="984" y="306" type="curve" smooth="yes"/>
      <point x="1006" y="319"/>
      <point x="1024" y="320"/>
      <point x="1043" y="302" type="curve" smooth="yes"/>
      <point x="1066" y="280"/>
      <point x="1066" y="234"/>
      <point x="1031" y="170" type="curve" smooth="yes"/>
      <point x="965" y="51"/>
      <point x="846" y="-28"/>
      <point x="705" y="-28" type="curve" smooth="yes"/>
      <point x="516" y="-28"/>
      <point x="492" y="114"/>
      <point x="557" y="288" type="curve" smooth="yes"/>
      <point x="624" y="473" type="line" smooth="yes"/>
      <point x="647" y="538"/>
      <point x="648" y="585"/>
      <point x="598" y="585" type="curve" smooth="yes"/>
      <point x="540" y="585"/>
      <point x="490" y="533"/>
    </contour>
  </outline>
</glyph>
<glyph name="i" format="2">
  <advance width="635"/>
  <unicode hex="0069"/>
  <outline>
    <contour>
      <point x="496" y="293" type="curve" smooth="yes"/>
      <point x="508" y="293"/>
      <point x="515" y="293"/>
      <point x="537" y="306" type="curve" smooth="yes"/>
      <point x="559" y="319"/>
      <point x="577" y="320"/>
      <point x="597" y="302" type="curve" smooth="yes"/>
      <point x="620" y="280"/>
      <point x="620" y="234"/>
      <point x="585" y="170" type="curve" smooth="yes"/>
      <point x="519" y="51"/>
      <point x="400" y="-28"/>
      <point x="258" y="-28" type="curve" smooth="yes"/>
      <point x="71" y="-28"/>
      <point x="31" y="114"/>
      <point x="111" y="288" type="curve" smooth="yes"/>
      <point x="195" y="476" type="line" smooth="yes"/>
      <point x="236" y="569"/>
      <point x="230" y="592"/>
      <point x="197" y="592" type="curve" smooth="yes"/>
      <point x="184" y="592"/>
      <point x="170" y="585"/>
      <point x="149" y="575" type="curve" smooth="yes"/>
      <point x="116" y="558"/>
      <point x="93" y="561"/>
      <point x="77" y="573" type="curve" smooth="yes"/>
      <point x="49" y="595"/>
      <point x="48" y="648"/>
      <point x="86" y="704" type="curve" smooth="yes"/>
      <point x="157" y="806"/>
      <point x="290" y="894"/>
      <point x="425" y="894" type="curve" smooth="yes"/>
      <point x="595" y="894"/>
      <point x="655" y="763"/>
      <point x="562" y="552" type="curve" smooth="yes"/>
      <point x="491" y="389" type="line" smooth="yes"/>
      <point x="463" y="326"/>
      <point x="464" y="293"/>
    </contour>
    <contour>
      <point x="487" y="975" type="curve" smooth="yes"/>
      <point x="650" y="975"/>
      <point x="759" y="1068"/>
      <point x="763" y="1180" type="curve" smooth="yes"/>
      <point x="767" y="1282"/>
      <point x="712" y="1357"/>
      <point x="581" y="1357" type="curve" smooth="yes"/>
      <point x="403" y="1357"/>
      <point x="296" y="1251"/>
      <point x="292" y="1138" type="curve" smooth="yes"/>
      <point x="289" y="1047"/>
      <point x="355" y="975"/>
    </contour>
  </outline>
</glyph>
<glyph name="j" format="2">
  <advance width="591"/>
  <unicode hex="006A"/>
  <outline>
    <contour>
      <point x="560" y="587" type="line" smooth="yes"/>
      <point x="619" y="776"/>
      <point x="583" y="894"/>
      <point x="409" y="894" type="curve" smooth="yes"/>
      <point x="273" y="894"/>
      <point x="140" y="806"/>
      <point x="70" y="704" type="curve" smooth="yes"/>
      <point x="32" y="647"/>
      <point x="32" y="595"/>
      <point x="60" y="573" type="curve" smooth="yes"/>
      <point x="77" y="561"/>
      <point x="100" y="558"/>
      <point x="132" y="575" type="curve" smooth="yes"/>
      <point x="154" y="586"/>
      <point x="167" y="592"/>
      <point x="180" y="592" type="curve" smooth="yes"/>
      <point x="212" y="592"/>
      <point x="195" y="542"/>
      <point x="183" y="498" type="curve" smooth="yes"/>
      <point x="102" y="208" type="line" smooth="yes"/>
      <point x="55" y="49"/>
      <point x="145" y="-29"/>
      <point x="143" y="-80" type="curve" smooth="yes"/>
      <point x="143" y="-118"/>
      <point x="120" y="-138"/>
      <point x="81" y="-138" type="curve" smooth="yes"/>
      <point x="4" y="-138"/>
      <point x="-67" y="-86"/>
      <point x="-149" y="-86" type="curve" smooth="yes"/>
      <point x="-256" y="-86"/>
      <point x="-324" y="-155"/>
      <point x="-328" y="-268" type="curve" smooth="yes"/>
      <point x="-333" y="-387"/>
      <point x="-250" y="-469"/>
      <point x="-106" y="-469" type="curve" smooth="yes"/>
      <point x="121" y="-469"/>
      <point x="288" y="-304"/>
      <point x="357" y="-83" type="curve" smooth="yes"/>
    </contour>
    <contour>
      <point x="446" y="975" type="curve" smooth="yes"/>
      <point x="610" y="975"/>
      <point x="717" y="1068"/>
      <point x="721" y="1180" type="curve" smooth="yes"/>
      <point x="725" y="1282"/>
      <point x="671" y="1357"/>
      <point x="539" y="1357" type="curve" smooth="yes"/>
      <point x="362" y="1357"/>
      <point x="254" y="1251"/>
      <point x="250" y="1138" type="curve" smooth="yes"/>
      <point x="247" y="1047"/>
      <point x="314" y="975"/>
    </contour>
  </outline>
</glyph>
<glyph name="k" format="2">
  <advance width="1082"/>
  <unicode hex="006B"/>
  <outline>
    <contour>
      <point x="470" y="608" type="line"/>
      <point x="541" y="788"/>
      <point x="719" y="893"/>
      <point x="890" y="894" type="curve" smooth="yes"/>
      <point x="1043" y="894"/>
      <point x="1116" y="810"/>
      <point x="1093" y="669" type="curve" smooth="yes"/>
      <point x="1062" y="475"/>
      <point x="822" y="362"/>
      <point x="353" y="300" type="curve"/>
      <point x="353" y="410" type="line"/>
      <point x="616" y="436"/>
      <point x="708" y="499"/>
      <point x="728" y="577" type="curve" smooth="yes"/>
      <point x="744" y="640"/>
      <point x="717" y="678"/>
      <point x="661" y="677" type="curve" smooth="yes"/>
      <point x="568" y="677"/>
      <point x="496" y="593"/>
      <point x="457" y="458" type="curve" smooth="yes"/>
      <point x="411" y="293"/>
      <point x="398" y="258"/>
      <point x="397" y="232" type="curve" smooth="yes"/>
      <point x="395" y="167"/>
      <point x="406" y="137"/>
      <point x="404" y="98" type="curve" smooth="yes"/>
      <point x="402" y="23"/>
      <point x="290" y="-29"/>
      <point x="168" y="-29" type="curve" smooth="yes"/>
      <point x="71" y="-29"/>
      <point x="13" y="22"/>
      <point x="16" y="111" type="curve" smooth="yes"/>
      <point x="17" y="144"/>
      <point x="27" y="185"/>
      <point x="43" y="238" type="curve" smooth="yes"/>
      <point x="244" y="910" type="line" smooth="yes"/>
      <point x="330" y="1200"/>
      <point x="577" y="1334"/>
      <point x="941" y="1334" type="curve" smooth="yes"/>
      <point x="1127" y="1334"/>
      <point x="1212" y="1233"/>
      <point x="1208" y="1122" type="curve" smooth="yes"/>
      <point x="1205" y="1034"/>
      <point x="1137" y="953"/>
      <point x="1018" y="953" type="curve" smooth="yes"/>
      <point x="865" y="953"/>
      <point x="813" y="1118"/>
      <point x="731" y="1118" type="curve" smooth="yes"/>
      <point x="676" y="1118"/>
      <point x="644" y="1096"/>
      <point x="614" y="981" type="curve" smooth="yes"/>
      <point x="577" y="842"/>
      <point x="518" y="660"/>
      <point x="499" y="595" type="curve"/>
    </contour>
    <contour>
      <point x="477" y="343" type="line"/>
      <point x="754" y="396" type="line"/>
      <point x="777" y="334" type="line" smooth="yes"/>
      <point x="790" y="301"/>
      <point x="808" y="285"/>
      <point x="833" y="282" type="curve" smooth="yes"/>
      <point x="863" y="278"/>
      <point x="886" y="292"/>
      <point x="911" y="310" type="curve" smooth="yes"/>
      <point x="936" y="328"/>
      <point x="968" y="334"/>
      <point x="990" y="325" type="curve" smooth="yes"/>
      <point x="1024" y="310"/>
      <point x="1036" y="281"/>
      <point x="1026" y="203" type="curve" smooth="yes"/>
      <point x="1004" y="51"/>
      <point x="879" y="-44"/>
      <point x="724" y="-32" type="curve" smooth="yes"/>
      <point x="586" y="-20"/>
      <point x="528" y="59"/>
      <point x="507" y="174" type="curve" smooth="yes"/>
    </contour>
  </outline>
</glyph>
<glyph name="l" format="2">
  <advance width="648"/>
  <unicode hex="006C"/>
  <outline>
    <contour>
      <point x="712" y="1365" type="curve" smooth="yes"/>
      <point x="545" y="1365"/>
      <point x="405" y="1257"/>
      <point x="325" y="1030" type="curve" smooth="yes"/>
      <point x="62" y="284" type="line" smooth="yes"/>
      <point x="-2" y="103"/>
      <point x="37" y="-28"/>
      <point x="222" y="-28" type="curve" smooth="yes"/>
      <point x="371" y="-28"/>
      <point x="486" y="48"/>
      <point x="551" y="168" type="curve" smooth="yes"/>
      <point x="585" y="233"/>
      <point x="586" y="279"/>
      <point x="562" y="300" type="curve" smooth="yes"/>
      <point x="543" y="318"/>
      <point x="525" y="317"/>
      <point x="503" y="305" type="curve" smooth="yes"/>
      <point x="482" y="293"/>
      <point x="475" y="292"/>
      <point x="464" y="292" type="curve" smooth="yes"/>
      <point x="443" y="292"/>
      <point x="431" y="307"/>
      <point x="459" y="386" type="curve" smooth="yes"/>
      <point x="560" y="652" type="line" smooth="yes"/>
      <point x="620" y="805"/>
      <point x="476" y="914"/>
      <point x="479" y="1001" type="curve" smooth="yes"/>
      <point x="479" y="1041"/>
      <point x="501" y="1068"/>
      <point x="539" y="1068" type="curve" smooth="yes"/>
      <point x="604" y="1068"/>
      <point x="680" y="1023"/>
      <point x="760" y="1023" type="curve" smooth="yes"/>
      <point x="851" y="1023"/>
      <point x="909" y="1080"/>
      <point x="913" y="1191" type="curve" smooth="yes"/>
      <point x="916" y="1282"/>
      <point x="849" y="1365"/>
    </contour>
  </outline>
</glyph>
<glyph name="m" format="2">
  <advance width="1637"/>
  <unicode hex="006D"/>
  <outline>
    <contour>
      <point x="611" y="278" type="line" smooth="yes"/>
      <point x="558" y="131"/>
      <point x="570" y="-28"/>
      <point x="747" y="-28" type="curve" smooth="yes"/>
      <point x="881" y="-28"/>
      <point x="974" y="36"/>
      <point x="982" y="139" type="curve" smooth="yes"/>
      <point x="987" y="188"/>
      <point x="959" y="226"/>
      <point x="961" y="275" type="curve" smooth="yes"/>
      <point x="961" y="293"/>
      <point x="971" y="332"/>
      <point x="1011" y="434" type="curve" smooth="yes"/>
      <point x="1042" y="521"/>
      <point x="1096" y="585"/>
      <point x="1158" y="585" type="curve" smooth="yes"/>
      <point x="1209" y="585"/>
      <point x="1207" y="538"/>
      <point x="1183" y="473" type="curve" smooth="yes"/>
      <point x="1119" y="288" type="line" smooth="yes"/>
      <point x="1057" y="113"/>
      <point x="1081" y="-28"/>
      <point x="1267" y="-28" type="curve" smooth="yes"/>
      <point x="1409" y="-28"/>
      <point x="1528" y="51"/>
      <point x="1594" y="170" type="curve" smooth="yes"/>
      <point x="1628" y="234"/>
      <point x="1628" y="281"/>
      <point x="1606" y="302" type="curve" smooth="yes"/>
      <point x="1586" y="320"/>
      <point x="1568" y="319"/>
      <point x="1546" y="306" type="curve" smooth="yes"/>
      <point x="1524" y="294"/>
      <point x="1517" y="293"/>
      <point x="1504" y="293" type="curve" smooth="yes"/>
      <point x="1472" y="293"/>
      <point x="1474" y="327"/>
      <point x="1499" y="390" type="curve" smooth="yes"/>
      <point x="1563" y="553" type="line" smooth="yes"/>
      <point x="1640" y="740"/>
      <point x="1629" y="894"/>
      <point x="1459" y="894" type="curve" smooth="yes"/>
      <point x="1279" y="894"/>
      <point x="1102" y="780"/>
      <point x="924" y="431" type="curve"/>
      <point x="966" y="420" type="line"/>
      <point x="973" y="543"/>
      <point x="1091" y="670"/>
      <point x="1096" y="799" type="curve" smooth="yes"/>
      <point x="1098" y="855"/>
      <point x="1050" y="894"/>
      <point x="953" y="894" type="curve" smooth="yes"/>
      <point x="773" y="894"/>
      <point x="595" y="779"/>
      <point x="419" y="431" type="curve"/>
      <point x="461" y="420" type="line"/>
      <point x="468" y="542"/>
      <point x="586" y="677"/>
      <point x="589" y="771" type="curve" smooth="yes"/>
      <point x="592" y="851"/>
      <point x="535" y="894"/>
      <point x="432" y="894" type="curve" smooth="yes"/>
      <point x="298" y="894"/>
      <point x="158" y="819"/>
      <point x="80" y="704" type="curve" smooth="yes"/>
      <point x="41" y="647"/>
      <point x="42" y="595"/>
      <point x="70" y="573" type="curve" smooth="yes"/>
      <point x="87" y="561"/>
      <point x="109" y="559"/>
      <point x="142" y="575" type="curve" smooth="yes"/>
      <point x="163" y="585"/>
      <point x="177" y="592"/>
      <point x="190" y="592" type="curve" smooth="yes"/>
      <point x="224" y="592"/>
      <point x="230" y="567"/>
      <point x="187" y="477" type="curve" smooth="yes"/>
      <point x="87" y="265" type="line" smooth="yes"/>
      <point x="10" y="101"/>
      <point x="46" y="-28"/>
      <point x="180" y="-28" type="curve" smooth="yes"/>
      <point x="364" y="-28"/>
      <point x="474" y="36"/>
      <point x="478" y="135" type="curve" smooth="yes"/>
      <point x="480" y="190"/>
      <point x="460" y="228"/>
      <point x="462" y="273" type="curve" smooth="yes"/>
      <point x="463" y="311"/>
      <point x="481" y="351"/>
      <point x="512" y="438" type="curve" smooth="yes"/>
      <point x="547" y="533"/>
      <point x="595" y="585"/>
      <point x="653" y="585" type="curve" smooth="yes"/>
      <point x="702" y="585"/>
      <point x="702" y="539"/>
      <point x="679" y="473" type="curve" smooth="yes"/>
    </contour>
  </outline>
</glyph>
<glyph name="n" format="2">
  <advance width="1134"/>
  <unicode hex="006E"/>
  <outline>
    <contour>
      <point x="72" y="573" type="curve" smooth="yes"/>
      <point x="88" y="561"/>
      <point x="110" y="558"/>
      <point x="143" y="575" type="curve" smooth="yes"/>
      <point x="165" y="585"/>
      <point x="178" y="592"/>
      <point x="191" y="592" type="curve" smooth="yes"/>
      <point x="226" y="592"/>
      <point x="232" y="566"/>
      <point x="189" y="476" type="curve" smooth="yes"/>
      <point x="90" y="265" type="line" smooth="yes"/>
      <point x="12" y="101"/>
      <point x="48" y="-28"/>
      <point x="182" y="-28" type="curve" smooth="yes"/>
      <point x="366" y="-28"/>
      <point x="476" y="36"/>
      <point x="480" y="135" type="curve" smooth="yes"/>
      <point x="482" y="190"/>
      <point x="461" y="228"/>
      <point x="463" y="273" type="curve" smooth="yes"/>
      <point x="464" y="312"/>
      <point x="481" y="351"/>
      <point x="515" y="439" type="curve" smooth="yes"/>
      <point x="549" y="533"/>
      <point x="597" y="585"/>
      <point x="655" y="585" type="curve" smooth="yes"/>
      <point x="706" y="585"/>
      <point x="705" y="538"/>
      <point x="682" y="474" type="curve" smooth="yes"/>
      <point x="614" y="288" type="line" smooth="yes"/>
      <point x="549" y="113"/>
      <point x="576" y="-28"/>
      <point x="763" y="-28" type="curve" smooth="yes"/>
      <point x="904" y="-28"/>
      <point x="1025" y="52"/>
      <point x="1089" y="170" type="curve" smooth="yes"/>
      <point x="1123" y="235"/>
      <point x="1123" y="281"/>
      <point x="1100" y="302" type="curve" smooth="yes"/>
      <point x="1081" y="320"/>
      <point x="1063" y="319"/>
      <point x="1041" y="306" type="curve" smooth="yes"/>
      <point x="1019" y="294"/>
      <point x="1012" y="293"/>
      <point x="999" y="293" type="curve" smooth="yes"/>
      <point x="967" y="293"/>
      <point x="968" y="327"/>
      <point x="995" y="390" type="curve" smooth="yes"/>
      <point x="1061" y="553" type="line" smooth="yes"/>
      <point x="1140" y="739"/>
      <point x="1129" y="894"/>
      <point x="956" y="894" type="curve" smooth="yes"/>
      <point x="775" y="894"/>
      <point x="596" y="777"/>
      <point x="421" y="431" type="curve"/>
      <point x="462" y="420" type="line"/>
      <point x="465" y="538"/>
      <point x="588" y="677"/>
      <point x="591" y="771" type="curve" smooth="yes"/>
      <point x="594" y="851"/>
      <point x="536" y="894"/>
      <point x="432" y="894" type="curve" smooth="yes"/>
      <point x="298" y="894"/>
      <point x="156" y="818"/>
      <point x="80" y="703" type="curve" smooth="yes"/>
      <point x="44" y="647"/>
      <point x="43" y="595"/>
    </contour>
  </outline>
</glyph>
<glyph name="q" format="2">
  <advance width="1030"/>
  <unicode hex="0071"/>
  <outline>
    <contour>
      <point x="581" y="265" type="line"/>
      <point x="440" y="-169" type="line" smooth="yes"/>
      <point x="427" y="-209"/>
      <point x="397" y="-235"/>
      <point x="341" y="-255" type="curve" smooth="yes"/>
      <point x="289" y="-274"/>
      <point x="252" y="-320"/>
      <point x="250" y="-366" type="curve" smooth="yes"/>
      <point x="248" y="-423"/>
      <point x="273" y="-452"/>
      <point x="334" y="-451" type="curve" smooth="yes"/>
      <point x="774" y="-442" type="line" smooth="yes"/>
      <point x="833" y="-441"/>
      <point x="874" y="-413"/>
      <point x="876" y="-343" type="curve" smooth="yes"/>
      <point x="877" y="-317"/>
      <point x="859" y="-297"/>
      <point x="838" y="-275" type="curve" smooth="yes"/>
      <point x="812" y="-247" type="line" smooth="yes"/>
      <point x="786" y="-217"/>
      <point x="794" y="-165"/>
      <point x="808" y="-114" type="curve" smooth="yes"/>
      <point x="986" y="575" type="line" smooth="yes"/>
      <point x="1006" y="647"/>
      <point x="1076" y="651"/>
      <point x="1089" y="737" type="curve" smooth="yes"/>
      <point x="1104" y="839"/>
      <point x="1019" y="902"/>
      <point x="714" y="902" type="curve" smooth="yes"/>
      <point x="318" y="902"/>
      <point x="92" y="605"/>
      <point x="46" y="328" type="curve" smooth="yes"/>
      <point x="8" y="88"/>
      <point x="107" y="-26"/>
      <point x="258" y="-26" type="curve" smooth="yes"/>
      <point x="414" y="-26"/>
      <point x="518" y="78"/>
      <point x="606" y="235" type="curve"/>
    </contour>
    <contour>
      <point x="424" y="355" type="curve" smooth="yes"/>
      <point x="461" y="520"/>
      <point x="552" y="696"/>
      <point x="625" y="696" type="curve" smooth="yes"/>
      <point x="657" y="696"/>
      <point x="679" y="658"/>
      <point x="668" y="595" type="curve" smooth="yes"/>
      <point x="633" y="394"/>
      <point x="521" y="230"/>
      <point x="453" y="230" type="curve" smooth="yes"/>
      <point x="426" y="230"/>
      <point x="404" y="262"/>
    </contour>
  </outline>
</glyph>
<glyph name="s" format="2">
  <advance width="911"/>
  <unicode hex="0073"/>
  <outline>
    <contour>
      <point x="422" y="144" type="curve" smooth="yes"/>
      <point x="368" y="144"/>
      <point x="324" y="167"/>
      <point x="275" y="249" type="curve" smooth="yes"/>
      <point x="231" y="318"/>
      <point x="191" y="362"/>
      <point x="124" y="362" type="curve" smooth="yes"/>
      <point x="63" y="362"/>
      <point x="22" y="311"/>
      <point x="18" y="221" type="curve" smooth="yes"/>
      <point x="11" y="79"/>
      <point x="111" y="-28"/>
      <point x="372" y="-28" type="curve" smooth="yes"/>
      <point x="656" y="-28"/>
      <point x="832" y="97"/>
      <point x="832" y="279" type="curve" smooth="yes"/>
      <point x="833" y="394"/>
      <point x="787" y="457"/>
      <point x="628" y="546" type="curve" smooth="yes"/>
      <point x="522" y="606"/>
      <point x="495" y="646"/>
      <point x="493" y="681" type="curve" smooth="yes"/>
      <point x="494" y="714"/>
      <point x="511" y="727"/>
      <point x="542" y="727" type="curve" smooth="yes"/>
      <point x="602" y="727"/>
      <point x="648" y="680"/>
      <point x="696" y="604" type="curve" smooth="yes"/>
      <point x="742" y="526"/>
      <point x="777" y="501"/>
      <point x="828" y="501" type="curve" smooth="yes"/>
      <point x="889" y="501"/>
      <point x="927" y="549"/>
      <point x="931" y="650" type="curve" smooth="yes"/>
      <point x="936" y="799"/>
      <point x="834" y="894"/>
      <point x="612" y="894" type="curve" smooth="yes"/>
      <point x="298" y="894"/>
      <point x="129" y="748"/>
      <point x="128" y="569" type="curve" smooth="yes"/>
      <point x="129" y="445"/>
      <point x="187" y="380"/>
      <point x="331" y="315" type="curve" smooth="yes"/>
      <point x="449" y="261"/>
      <point x="471" y="236"/>
      <point x="472" y="194" type="curve" smooth="yes"/>
      <point x="471" y="167"/>
      <point x="454" y="144"/>
    </contour>
  </outline>
</glyph>
<glyph name="t" format="2">
  <advance width="757"/>
  <unicode hex="0074"/>
  <outline>
    <contour>
      <point x="160" y="645" type="line" smooth="yes"/>
      <point x="201" y="614"/>
      <point x="195" y="575"/>
      <point x="164" y="486" type="curve" smooth="yes"/>
      <point x="131" y="381" type="line" smooth="yes"/>
      <point x="31" y="95"/>
      <point x="100" y="-24"/>
      <point x="269" y="-24" type="curve" smooth="yes"/>
      <point x="516" y="-24"/>
      <point x="703" y="150"/>
      <point x="707" y="263" type="curve" smooth="yes"/>
      <point x="708" y="300"/>
      <point x="691" y="325"/>
      <point x="659" y="325" type="curve" smooth="yes"/>
      <point x="637" y="325"/>
      <point x="624" y="317"/>
      <point x="592" y="291" type="curve" smooth="yes"/>
      <point x="557" y="261"/>
      <point x="540" y="248"/>
      <point x="511" y="248" type="curve" smooth="yes"/>
      <point x="462" y="248"/>
      <point x="446" y="280"/>
      <point x="482" y="397" type="curve" smooth="yes"/>
      <point x="612" y="834" type="line" smooth="yes"/>
      <point x="633" y="899"/>
      <point x="644" y="956"/>
      <point x="646" y="994" type="curve" smooth="yes"/>
      <point x="647" y="1039"/>
      <point x="618" y="1074"/>
      <point x="563" y="1074" type="curve" smooth="yes"/>
      <point x="505" y="1074"/>
      <point x="470" y="1042"/>
      <point x="445" y="1014" type="curve" smooth="yes"/>
      <point x="372" y="930" type="line" smooth="yes"/>
      <point x="318" y="868"/>
      <point x="281" y="855"/>
      <point x="219" y="855" type="curve" smooth="yes"/>
      <point x="208" y="855" type="line" smooth="yes"/>
      <point x="136" y="855"/>
      <point x="91" y="817"/>
      <point x="88" y="757" type="curve" smooth="yes"/>
      <point x="87" y="716"/>
      <point x="105" y="687"/>
      <point x="138" y="663" type="curve" smooth="yes"/>
    </contour>
    <contour>
      <point x="474" y="629" type="line"/>
      <point x="638" y="629" type="line" smooth="yes"/>
      <point x="738" y="629"/>
      <point x="803" y="685"/>
      <point x="806" y="774" type="curve" smooth="yes"/>
      <point x="808" y="819"/>
      <point x="789" y="844"/>
      <point x="748" y="844" type="curve" smooth="yes"/>
      <point x="547" y="844" type="line"/>
    </contour>
  </outline>
</glyph>
<glyph name="u" format="2">
  <advance width="1139"/>
  <unicode hex="0075"/>
  <anchor x="669" y="935" name="center"/>
  <outline>
    <contour>
      <point x="1102" y="293" type="curve" smooth="yes"/>
      <point x="1087" y="305"/>
      <point x="1064" y="308"/>
      <point x="1032" y="292" type="curve" smooth="yes"/>
      <point x="1010" y="281"/>
      <point x="998" y="273"/>
      <point x="984" y="273" type="curve" smooth="yes"/>
      <point x="949" y="273"/>
      <point x="943" y="300"/>
      <point x="987" y="390" type="curve" smooth="yes"/>
      <point x="1085" y="601" type="line" smooth="yes"/>
      <point x="1164" y="765"/>
      <point x="1127" y="894"/>
      <point x="993" y="894" type="curve" smooth="yes"/>
      <point x="809" y="894"/>
      <point x="699" y="830"/>
      <point x="695" y="730" type="curve" smooth="yes"/>
      <point x="694" y="676"/>
      <point x="713" y="638"/>
      <point x="712" y="592" type="curve" smooth="yes"/>
      <point x="710" y="555"/>
      <point x="693" y="514"/>
      <point x="660" y="427" type="curve" smooth="yes"/>
      <point x="627" y="333"/>
      <point x="577" y="281"/>
      <point x="519" y="281" type="curve" smooth="yes"/>
      <point x="468" y="281"/>
      <point x="469" y="328"/>
      <point x="494" y="392" type="curve" smooth="yes"/>
      <point x="561" y="579" type="line" smooth="yes"/>
      <point x="625" y="753"/>
      <point x="599" y="894"/>
      <point x="412" y="894" type="curve" smooth="yes"/>
      <point x="270" y="894"/>
      <point x="150" y="814"/>
      <point x="85" y="696" type="curve" smooth="yes"/>
      <point x="51" y="631"/>
      <point x="52" y="585"/>
      <point x="75" y="564" type="curve" smooth="yes"/>
      <point x="93" y="546"/>
      <point x="112" y="546"/>
      <point x="134" y="559" type="curve" smooth="yes"/>
      <point x="155" y="571"/>
      <point x="162" y="574"/>
      <point x="176" y="574" type="curve" smooth="yes"/>
      <point x="207" y="574"/>
      <point x="206" y="540"/>
      <point x="180" y="476" type="curve" smooth="yes"/>
      <point x="113" y="313" type="line" smooth="yes"/>
      <point x="35" y="128"/>
      <point x="46" y="-28"/>
      <point x="219" y="-28" type="curve" smooth="yes"/>
      <point x="400" y="-28"/>
      <point x="579" y="88"/>
      <point x="754" y="435" type="curve"/>
      <point x="713" y="446" type="line"/>
      <point x="710" y="328"/>
      <point x="589" y="190"/>
      <point x="585" y="95" type="curve" smooth="yes"/>
      <point x="583" y="15"/>
      <point x="638" y="-28"/>
      <point x="742" y="-28" type="curve" smooth="yes"/>
      <point x="876" y="-28"/>
      <point x="1020" y="48"/>
      <point x="1095" y="163" type="curve" smooth="yes"/>
      <point x="1132" y="219"/>
      <point x="1131" y="270"/>
    </contour>
  </outline>
</glyph>
<glyph name="w" format="2">
  <advance width="1564"/>
  <unicode hex="0077"/>
  <outline>
    <contour>
      <point x="1089" y="882" type="curve" smooth="yes"/>
      <point x="1006" y="900"/>
      <point x="938" y="839"/>
      <point x="863" y="692" type="curve" smooth="yes"/>
      <point x="813" y="592"/>
      <point x="769" y="445"/>
      <point x="764" y="325" type="curve" smooth="yes"/>
      <point x="756" y="93"/>
      <point x="840" y="-28"/>
      <point x="1042" y="-28" type="curve" smooth="yes"/>
      <point x="1335" y="-28"/>
      <point x="1587" y="267"/>
      <point x="1600" y="616" type="curve" smooth="yes"/>
      <point x="1607" y="819"/>
      <point x="1543" y="891"/>
      <point x="1419" y="891" type="curve" smooth="yes"/>
      <point x="1294" y="891"/>
      <point x="1208" y="790"/>
      <point x="1204" y="693" type="curve" smooth="yes"/>
      <point x="1202" y="626"/>
      <point x="1218" y="580"/>
      <point x="1238" y="548" type="curve" smooth="yes"/>
      <point x="1258" y="514"/>
      <point x="1270" y="473"/>
      <point x="1267" y="405" type="curve" smooth="yes"/>
      <point x="1262" y="252"/>
      <point x="1197" y="153"/>
      <point x="1118" y="153" type="curve" smooth="yes"/>
      <point x="1055" y="153"/>
      <point x="1026" y="215"/>
      <point x="1030" y="351" type="curve" smooth="yes"/>
      <point x="1033" y="417"/>
      <point x="1059" y="516"/>
      <point x="1084" y="634" type="curve"/>
      <point x="1004" y="304"/>
      <point x="809" y="206"/>
      <point x="693" y="206" type="curve" smooth="yes"/>
      <point x="633" y="206"/>
      <point x="604" y="243"/>
      <point x="607" y="309" type="curve" smooth="yes"/>
      <point x="610" y="387"/>
      <point x="643" y="514"/>
      <point x="749" y="709" type="curve" smooth="yes"/>
      <point x="797" y="801"/>
      <point x="766" y="868"/>
      <point x="704" y="890" type="curve" smooth="yes"/>
      <point x="649" y="907"/>
      <point x="589" y="833"/>
      <point x="549" y="833" type="curve" smooth="yes"/>
      <point x="503" y="833"/>
      <point x="426" y="896"/>
      <point x="350" y="896" type="curve" smooth="yes"/>
      <point x="146" y="896"/>
      <point x="16" y="742"/>
      <point x="9" y="556" type="curve" smooth="yes"/>
      <point x="5" y="418"/>
      <point x="59" y="337"/>
      <point x="143" y="337" type="curve" smooth="yes"/>
      <point x="192" y="337"/>
      <point x="233" y="370"/>
      <point x="235" y="435" type="curve" smooth="yes"/>
      <point x="237" y="491"/>
      <point x="221" y="508"/>
      <point x="192" y="529" type="curve" smooth="yes"/>
      <point x="172" y="544"/>
      <point x="166" y="563"/>
      <point x="166" y="587" type="curve" smooth="yes"/>
      <point x="167" y="604"/>
      <point x="181" y="620"/>
      <point x="212" y="620" type="curve" smooth="yes"/>
      <point x="310" y="620"/>
      <point x="395" y="489"/>
      <point x="574" y="489" type="curve"/>
      <point x="581" y="571" type="line"/>
      <point x="519" y="453"/>
      <point x="211" y="372"/>
      <point x="203" y="147" type="curve" smooth="yes"/>
      <point x="200" y="46"/>
      <point x="288" y="-28"/>
      <point x="432" y="-28" type="curve" smooth="yes"/>
      <point x="662" y="-28"/>
      <point x="852" y="61"/>
      <point x="1065" y="432" type="curve" smooth="yes"/>
      <point x="1187" y="647"/>
      <point x="1173" y="865"/>
    </contour>
  </outline>
</glyph>
<glyph name="x" format="2">
  <advance width="1174"/>
  <unicode hex="0078"/>
  <outline>
    <contour>
      <point x="427" y="414" type="line"/>
      <point x="429" y="267"/>
      <point x="375" y="218"/>
      <point x="343" y="218" type="curve" smooth="yes"/>
      <point x="332" y="218"/>
      <point x="314" y="227"/>
      <point x="315" y="257" type="curve" smooth="yes"/>
      <point x="316" y="277"/>
      <point x="320" y="287"/>
      <point x="321" y="304" type="curve" smooth="yes"/>
      <point x="324" y="387"/>
      <point x="273" y="443"/>
      <point x="191" y="443" type="curve" smooth="yes"/>
      <point x="93" y="443"/>
      <point x="8" y="341"/>
      <point x="0" y="179" type="curve" smooth="yes"/>
      <point x="-5" y="59"/>
      <point x="52" y="-28"/>
      <point x="172" y="-28" type="curve" smooth="yes"/>
      <point x="343" y="-28"/>
      <point x="482" y="103"/>
      <point x="484" y="376" type="curve"/>
    </contour>
    <contour>
      <point x="750" y="633" type="line" smooth="yes"/>
      <point x="750" y="779"/>
      <point x="686" y="894"/>
      <point x="531" y="894" type="curve" smooth="yes"/>
      <point x="302" y="894"/>
      <point x="145" y="755"/>
      <point x="144" y="639" type="curve" smooth="yes"/>
      <point x="144" y="588"/>
      <point x="179" y="569"/>
      <point x="206" y="569" type="curve" smooth="yes"/>
      <point x="240" y="569"/>
      <point x="259" y="585"/>
      <point x="279" y="605" type="curve" smooth="yes"/>
      <point x="311" y="638"/>
      <point x="340" y="651"/>
      <point x="362" y="651" type="curve" smooth="yes"/>
      <point x="400" y="651"/>
      <point x="423" y="621"/>
      <point x="424" y="550" type="curve" smooth="yes"/>
      <point x="432" y="281" type="line" smooth="yes"/>
      <point x="437" y="76"/>
      <point x="529" y="-28"/>
      <point x="718" y="-28" type="curve" smooth="yes"/>
      <point x="898" y="-28"/>
      <point x="1045" y="127"/>
      <point x="1050" y="247" type="curve" smooth="yes"/>
      <point x="1050" y="290"/>
      <point x="1028" y="317"/>
      <point x="993" y="317" type="curve" smooth="yes"/>
      <point x="949" y="317"/>
      <point x="937" y="305"/>
      <point x="898" y="276" type="curve" smooth="yes"/>
      <point x="872" y="254"/>
      <point x="856" y="237"/>
      <point x="817" y="237" type="curve" smooth="yes"/>
      <point x="775" y="237"/>
      <point x="751" y="282"/>
      <point x="751" y="349" type="curve" smooth="yes"/>
    </contour>
    <contour>
      <point x="746" y="393" type="line"/>
      <point x="743" y="532"/>
      <point x="823" y="634"/>
      <point x="888" y="634" type="curve" smooth="yes"/>
      <point x="910" y="634"/>
      <point x="923" y="615"/>
      <point x="923" y="592" type="curve" smooth="yes"/>
      <point x="922" y="571"/>
      <point x="912" y="539"/>
      <point x="911" y="523" type="curve" smooth="yes"/>
      <point x="909" y="460"/>
      <point x="958" y="421"/>
      <point x="1028" y="421" type="curve" smooth="yes"/>
      <point x="1128" y="421"/>
      <point x="1211" y="512"/>
      <point x="1217" y="672" type="curve" smooth="yes"/>
      <point x="1222" y="799"/>
      <point x="1163" y="894"/>
      <point x="1043" y="894" type="curve" smooth="yes"/>
      <point x="858" y="894"/>
      <point x="703" y="699"/>
      <point x="700" y="418" type="curve"/>
    </contour>
  </outline>
</glyph>
